<?xml version="1.0" encoding="UTF-8" standalone="no"?>
<!-- Created with Inkscape (http://www.inkscape.org/) -->

<svg
   xmlns:dc="http://purl.org/dc/elements/1.1/"
   xmlns:cc="http://creativecommons.org/ns#"
   xmlns:rdf="http://www.w3.org/1999/02/22-rdf-syntax-ns#"
   xmlns:svg="http://www.w3.org/2000/svg"
   xmlns="http://www.w3.org/2000/svg"
   xmlns:xlink="http://www.w3.org/1999/xlink"
   xmlns:sodipodi="http://sodipodi.sourceforge.net/DTD/sodipodi-0.dtd"
   xmlns:inkscape="http://www.inkscape.org/namespaces/inkscape"
   width="210mm"
   height="297mm"
   viewBox="0 0 210 297"
   version="1.1"
   id="svg8"
   inkscape:version="0.92.3 (2405546, 2018-03-11)"
   sodipodi:docname="rocket.svg">
  <defs
     id="defs2">
    <linearGradient
       gradientUnits="userSpaceOnUse"
       y2="397.3"
       x2="298.92"
       y1="182.33"
       x1="320.77"
       id="linear-gradient">
      <stop
         id="stop3713"
         stop-opacity="0"
         stop-color="#010101"
         offset="0" />
      <stop
         id="stop3715"
         stop-color="#010101"
         offset="0.95" />
    </linearGradient>
    <linearGradient
       xlink:href="#linear-gradient"
       y2="407.12"
       x2="395.63"
       y1="192.15"
       x1="417.47"
       id="linear-gradient-2" />
    <linearGradient
       xlink:href="#linear-gradient"
       y2="208.68"
       x2="119.45"
       y1="339.43"
       x1="244.82"
       id="linear-gradient-3" />
    <linearGradient
       xlink:href="#linear-gradient"
       y2="284.24"
       x2="99.67"
       y1="327.83"
       x1="227.2"
       id="linear-gradient-4" />
    <linearGradient
       xlink:href="#linear-gradient"
       y2="393.71"
       x2="189.03"
       y1="200.01"
       x1="204.09"
       id="linear-gradient-5" />
    <linearGradient
       xlink:href="#linear-gradient"
       y2="329.24"
       x2="242.31"
       y1="168.89"
       x1="236.57"
       id="linear-gradient-6" />
    <linearGradient
       gradientUnits="userSpaceOnUse"
       y2="165.25"
       x2="404.94"
       y1="169.62"
       x1="320.61"
       id="linear-gradient-7">
      <stop
         id="stop3723"
         stop-opacity="0"
         stop-color="#fff"
         offset="0" />
      <stop
         id="stop3725"
         stop-color="#fff"
         offset="0.95" />
    </linearGradient>
    <linearGradient
       xlink:href="#linear-gradient"
       y2="151.73"
       x2="379.77"
       y1="327.37"
       x1="374.52"
       id="linear-gradient-8" />
    <linearGradient
       xlink:href="#linear-gradient"
       y2="194.31"
       x2="378.5"
       y1="301.44"
       x1="375.31"
       id="linear-gradient-9" />
    <linearGradient
       xlink:href="#linear-gradient"
       y2="77.54"
       x2="341.71"
       y1="84.53"
       x1="381.9"
       id="linear-gradient-10" />
  </defs>
  <sodipodi:namedview
     id="base"
     pagecolor="#ffffff"
     bordercolor="#666666"
     borderopacity="1.0"
     inkscape:pageopacity="0.0"
     inkscape:pageshadow="2"
     inkscape:zoom="1.4"
     inkscape:cx="468.85291"
     inkscape:cy="541.96995"
     inkscape:document-units="mm"
     inkscape:current-layer="g3898"
     showgrid="false"
     inkscape:window-width="2400"
     inkscape:window-height="1271"
     inkscape:window-x="2391"
     inkscape:window-y="-9"
     inkscape:window-maximized="1" />
  <metadata
     id="metadata5">
    <rdf:RDF>
      <cc:Work
         rdf:about="">
        <dc:format>image/svg+xml</dc:format>
        <dc:type
           rdf:resource="http://purl.org/dc/dcmitype/StillImage" />
        <dc:title></dc:title>
      </cc:Work>
    </rdf:RDF>
  </metadata>
  <g
     inkscape:label="Calque 1"
     inkscape:groupmode="layer"
     id="layer1">
    <g
       id="g3898"
       transform="matrix(0.26458333,0,0,0.26458333,34.651912,91.3086)">
      <path
         id="path3737"
         style="opacity:0.23999999;isolation:isolate;fill:#68e1fd"
         transform="translate(-12.95,-19.35)"
         d="m 138.42,372.6 c -2.48,0.5 -5.12,1.15 -6.79,3 -2.35,2.68 -1.82,7 0.33,9.85 2.15,2.85 5.5,4.47 8.82,5.74 15.64,6 32.82,6.05 49.56,6.07 33.79,0 68.86,-0.2 99.46,-14.55 -24.73,-9.55 -47.76,-9.08 -73.5,-10.9 -26.78,-1.81 -51.09,-4.69 -77.88,0.79 z"
         inkscape:connector-curvature="0" />
      <polygon
         id="polygon3739"
         points="290.19,261.47 337.91,235.34 328.63,197.09 312.73,205.8 "
         style="fill:#68e1fd" />
      <polygon
         id="polygon3741"
         points="435.62,261.47 387.9,235.34 397.18,197.09 413.08,205.8 "
         style="fill:#68e1fd" />
      <polygon
         id="polygon3743"
         points="290.19,261.47 337.91,235.34 328.63,197.09 312.73,205.8 "
         style="fill:url(#linear-gradient)" />
      <polygon
         id="polygon3745"
         points="435.62,261.47 387.9,235.34 397.18,197.09 413.08,205.8 "
         style="fill:url(#linear-gradient-2)" />
      <path
         id="path3747"
         transform="translate(-12.95,-19.35)"
         d="m 221.52,369 a 5,5 0 0 0 2.36,5.73 13.17,13.17 0 0 0 3.05,0.94 20.53,20.53 0 0 1 8.7,4.55 2.85,2.85 0 0 1 1.28,2.46 c -0.23,1.11 -1.53,1.58 -2.63,1.84 a 42.55,42.55 0 0 1 -7.06,1.29 c -4.85,0.33 -9.65,-1 -14.33,-2.35 -1.78,-0.51 -4.46,-1.28 -4.87,-3.35 a 20.44,20.44 0 0 1 0.2,-4.27 l 0.31,-7.2"
         inkscape:connector-curvature="0"
         style="fill:#606161" />
      <path
         id="path3749"
         transform="translate(-12.95,-19.35)"
         d="m 193.89,377.59 a 3.05,3.05 0 0 0 0.68,3.25 11.69,11.69 0 0 0 2.85,2.05 26.81,26.81 0 0 1 7.2,6.39 c 0.92,1.17 1.78,2.7 1.2,4.07 a 3.56,3.56 0 0 1 -1.41,1.52 11.44,11.44 0 0 1 -6.6,1.52 c -5.81,-0.15 -14.4,-3.78 -16.08,-10.07 -0.53,-1.95 0.05,-4.62 0.13,-6.63 l 0.21,-4.85"
         inkscape:connector-curvature="0"
         style="fill:#606161" />
      <path
         id="path3751"
         transform="translate(-12.95,-19.35)"
         d="m 226.82,257.77 -4.52,113 a 10.69,10.69 0 0 1 -6,2.07 c -4.17,0.24 -4.92,0.54 -7.92,-2.19 l -13.1,-118.51 31.54,-0.66 z"
         inkscape:connector-curvature="0"
         style="fill:#606161" />
      <path
         id="path3753"
         transform="translate(-12.95,-19.35)"
         d="m 226.82,257.77 -4.52,113 a 10.69,10.69 0 0 1 -6,2.07 c -4.17,0.24 -4.92,0.54 -7.92,-2.19 l -13.1,-118.51 31.54,-0.66 z"
         inkscape:connector-curvature="0"
         style="fill:url(#linear-gradient-3)" />
      <path
         id="path3755"
         transform="translate(-12.95,-19.35)"
         d="m 209,267.92 -13,109.9 c 0,0 -1.88,1.93 -7,2 -5.81,0.07 -6.34,-0.72 -7.64,-3.66 l -2.57,-126.06 29.85,5.09 z"
         inkscape:connector-curvature="0"
         style="fill:#606161" />
      <path
         id="path3757"
         transform="translate(-12.95,-19.35)"
         d="m 209,267.92 -13,109.9 c 0,0 -1.88,1.93 -7,2 -5.81,0.07 -6.34,-0.72 -7.64,-3.66 l -2.57,-126.06 29.85,5.09 z"
         inkscape:connector-curvature="0"
         style="fill:url(#linear-gradient-4)" />
      <path
         id="path3759"
         transform="translate(-12.95,-19.35)"
         d="m 213.05,256.92 a 67.38,67.38 0 0 1 -12.53,2.94 c -5.65,0.58 -11.57,-2.15 -16,-2.38 -5.91,-0.3 -6.07,-0.49 -6.07,-4.34 0,-1.94 49.14,-6.59 49.14,-6.59 0,0 -0.23,3.55 -0.22,6.83 0,2.46 -1.05,2.32 -5.52,2.58 -4.47,0.26 -5.33,-1.1 -8.8,0.96 z"
         inkscape:connector-curvature="0"
         style="fill:#f2fbff" />
      <path
         id="path3761"
         transform="translate(-12.95,-19.35)"
         d="m 193.66,170.16 c 0,0 -8.24,2.14 -14.12,6.42 -3.63,2.64 -1.12,76.56 -1.12,76.56 0.36,-0.06 16.15,6.34 31.42,3.71 13,-2.24 17.69,-8.34 17.69,-8.34 0,0 1.17,-70.93 -1.36,-73.84 -1.12,-1.3 -13.49,-5.87 -13.49,-5.87 0,0 -5.4,8.12 -19.02,1.36 z"
         inkscape:connector-curvature="0"
         style="fill:#68e1fd" />
      <path
         id="path3763"
         transform="translate(-12.95,-19.35)"
         d="m 193.66,170.16 c 0,0 -8.24,2.14 -14.12,6.42 -3.63,2.64 -1.12,76.56 -1.12,76.56 0.36,-0.06 16.15,6.34 31.42,3.71 13,-2.24 17.69,-8.34 17.69,-8.34 0,0 1.17,-70.93 -1.36,-73.84 -1.12,-1.3 -13.49,-5.87 -13.49,-5.87 0,0 -5.4,8.12 -19.02,1.36 z"
         inkscape:connector-curvature="0"
         style="fill:url(#linear-gradient-5)" />
      <path
         id="path3765"
         transform="translate(-12.95,-19.35)"
         d="m 196.36,153.74 -2.7,16.42 c 0,0 6,8.84 13.67,7.52 7.67,-1.32 5.74,-4.88 5.74,-4.88 l -1,-13.87 c 0,0 -6.89,1.21 -15.71,-5.19 z"
         inkscape:connector-curvature="0"
         style="fill:#c8a59c" />
      <path
         id="path3767"
         transform="translate(-12.95,-19.35)"
         d="m 195.41,159.5 1,-5.76 c 8.82,6.4 13.4,3.68 13.4,3.68 l 2.13,7.45 a 7.14,7.14 0 0 1 -4.54,2.18 c -4.28,0.3 -8.56,-3.05 -11.99,-7.55 z"
         inkscape:connector-curvature="0"
         style="fill:#b58b81" />
      <path
         id="path3769"
         transform="translate(-12.95,-19.35)"
         d="m 194,168.18 -8,3.76 c 0,0 12.6,13.32 16.44,13.06 0,0 3.63,-6.74 7,-7.8 z"
         inkscape:connector-curvature="0"
         style="fill:#f2fbff" />
      <path
         id="path3771"
         transform="translate(-12.95,-19.35)"
         d="m 212.53,170.47 a 23.58,23.58 0 0 1 -3.06,6.72 c 0.75,0.29 5.64,3.7 5.72,6 0,0 4.86,-11 2.85,-12.73 a 52.4,52.4 0 0 0 -5.17,-2.29 z"
         inkscape:connector-curvature="0"
         style="fill:#f2fbff" />
      <path
         id="path3773"
         transform="translate(-12.95,-19.35)"
         d="m 182.79,174.63 c 0,0 -12.37,4 -13.77,23.75 -1.28,18 -4.5,31.07 -1.88,36.4 3.41,6.95 27.26,8.1 27.26,8.1 a 25.38,25.38 0 0 0 -0.43,-10.4 l -13.07,-5.22 c 0,0 2.1,-49.55 1.89,-52.63 z"
         inkscape:connector-curvature="0"
         style="fill:#68e1fd" />
      <path
         id="path3775"
         transform="translate(-12.95,-19.35)"
         d="m 189.45,141.78 c 0.65,9.11 10,25.21 19.1,24.56 9.1,-0.65 11.75,-19.5 11.1,-28.61 -0.65,-9.11 -5.76,-14.28 -14.88,-13.63 a 16.54,16.54 0 0 0 -15.32,17.68 z"
         inkscape:connector-curvature="0"
         style="fill:#c8a59c" />
      <path
         id="path3777"
         transform="translate(-12.95,-19.35)"
         d="m 210.9,241.45 c -0.22,-1.74 0.6,-3.41 0.84,-6.37 0.24,-2.96 -1.68,-3.73 -4.49,-4 -0.77,-0.09 -1.37,-0.18 -1.88,-0.26 -2.62,0.63 -0.53,3.81 -0.39,6 0.14,2.19 -0.35,5.33 0.41,6 0.32,0.29 2.73,0.16 5.52,-0.2 a 4.75,4.75 0 0 0 -0.01,-1.17 z"
         inkscape:connector-curvature="0"
         style="fill:#b58b81" />
      <path
         id="path3779"
         transform="translate(-12.95,-19.35)"
         d="m 212.63,156.93 c 0,0 -0.25,-0.23 -2.16,-0.09 a 27.94,27.94 0 0 1 -6.77,-0.48 c -1.47,-0.37 -2.17,-0.14 -2,1.83 0.17,1.97 1.71,3.72 5.57,3.93 4.33,0.23 6.15,-1.4 6.49,-3.35 0.24,-1.41 -0.65,-1.88 -1.13,-1.84 z"
         inkscape:connector-curvature="0"
         style="fill:#c8a59c" />
      <path
         id="path3781"
         transform="translate(-12.95,-19.35)"
         d="m 196,232.79 a 39.42,39.42 0 0 0 4.79,-1.34 c 2.06,-0.78 2.71,-0.32 5.73,0 3.02,0.32 5.09,1.09 4.83,4.12 -0.26,3.03 -1.13,4.73 -0.9,6.5 0.23,1.77 -0.32,3.29 -3,3.35 -2.68,0.06 -11.45,-2.64 -11.45,-2.64"
         inkscape:connector-curvature="0"
         style="fill:#c8a59c" />
      <path
         id="path3783"
         transform="translate(-12.95,-19.35)"
         d="m 193.08,232 h 4.59 c 0,0 2,6.62 -0.6,11.21 L 192,243 c 0,0 1.72,-6.44 1.08,-11 z"
         inkscape:connector-curvature="0"
         style="fill:#f2fbff" />
      <ellipse
         id="ellipse3785"
         ry="1.0700001"
         rx="1.01"
         cy="214.78999"
         cx="182.45"
         style="fill:#d2e8ec" />
      <path
         id="path3787"
         transform="translate(-12.95,-19.35)"
         d="m 213.29,146.08 v 0 a 4.53,4.53 0 0 1 0.49,-3.45 4.46,4.46 0 0 1 2.78,-2.09 4.55,4.55 0 1 1 2.28,8.8 h -0.16 a 4.55,4.55 0 0 1 -5.39,-3.26 z m 3.54,-4.48 a 3.46,3.46 0 0 0 -2.48,4.21 v 0 a 3.46,3.46 0 1 0 2.6,-4.24 z"
         inkscape:connector-curvature="0"
         style="fill:#292f67" />
      <path
         id="path3789"
         transform="translate(-12.95,-19.35)"
         d="m 204,149.41 a 5.14,5.14 0 0 1 -2.38,-3.16 v 0 a 5.16,5.16 0 1 1 6.3,3.71 h -0.19 A 5.09,5.09 0 0 1 204,149.41 Z m 1.6,-8.39 a 4.06,4.06 0 0 0 -2.92,5 4.07,4.07 0 1 0 3.07,-5 z"
         inkscape:connector-curvature="0"
         style="fill:#292f67" />
      <path
         id="path3791"
         transform="translate(-12.95,-19.35)"
         d="m 213.17,145 1.05,-0.31 a 1.47,1.47 0 0 0 -0.88,-0.93 3.28,3.28 0 0 0 -2.74,0.47 l 0.52,1 c 1.07,-0.58 1.59,-0.52 1.8,-0.43 a 0.43,0.43 0 0 1 0.25,0.2 z"
         inkscape:connector-curvature="0"
         style="fill:#292f67" />
      <polygon
         id="polygon3793"
         points="182.82,124.45 182.87,125.54 189.1,125.36 189.06,124.27 "
         style="fill:#292f67" />
      <path
         id="path3795"
         transform="translate(-12.95,-19.35)"
         d="m 226.17,174.67 c 0,0 6.91,19.26 11.21,34.87 4.3,15.61 17,0.27 17,0.27 0,0 7,-0.27 7.26,4 0.26,4.27 -4,18 -16.14,18.3 -12.14,0.3 -25,-15.61 -25,-15.61 z"
         inkscape:connector-curvature="0"
         style="fill:#68e1fd" />
      <path
         id="path3797"
         transform="translate(-12.95,-19.35)"
         d="m 244.76,241.59 -24.69,-0.36 a 4.09,4.09 0 0 1 -4.2,-5.07 l 9.43,-43.65 a 6.59,6.59 0 0 1 6.35,-4.92 l 24.69,0.36 a 4.08,4.08 0 0 1 4.2,5.07 l -9.42,43.65 a 6.6,6.6 0 0 1 -6.36,4.92 z"
         inkscape:connector-curvature="0"
         style="fill:#68e1fd" />
      <path
         id="path3799"
         transform="translate(-12.95,-19.35)"
         d="m 244.76,241.59 -24.69,-0.36 a 4.09,4.09 0 0 1 -4.2,-5.07 l 9.43,-43.65 a 6.59,6.59 0 0 1 6.35,-4.92 l 24.69,0.36 a 4.08,4.08 0 0 1 4.2,5.07 l -9.42,43.65 a 6.6,6.6 0 0 1 -6.36,4.92 z"
         inkscape:connector-curvature="0"
         style="fill:url(#linear-gradient-6)" />
      <path
         id="path3801"
         transform="translate(-12.95,-19.35)"
         d="m 244.93,241.85 -23.62,-0.35 a 3.92,3.92 0 0 1 -4,-4.86 l 9,-41.77 a 6.33,6.33 0 0 1 6.09,-4.71 l 23.63,0.35 a 3.91,3.91 0 0 1 4,4.86 l -9,41.77 a 6.33,6.33 0 0 1 -6.1,4.71 z"
         inkscape:connector-curvature="0"
         style="fill:#68e1fd" />
      <path
         id="path3803"
         transform="translate(-12.95,-19.35)"
         d="m 260.84,211.82 a 7.43,7.43 0 0 0 -0.61,-2.81 4.67,4.67 0 0 0 -1.52,-2.3 5,5 0 0 0 -2.64,-0.64 c -0.93,0 -1.87,0 -2.8,0 a 7.88,7.88 0 0 0 -3,0.54 6.64,6.64 0 0 0 -3,3.39 c -1.28,2.73 -1.55,6.2 0.28,8.59 a 11.93,11.93 0 0 0 2.82,2.42 c 1.15,0.79 2.5,1.62 3.85,1.25 a 4.75,4.75 0 0 0 1.72,-1.06 l 2,-1.66 a 6.57,6.57 0 0 0 1.7,-1.87 7.62,7.62 0 0 0 0.52,-2.95 29.63,29.63 0 0 0 0.68,-2.9 z"
         inkscape:connector-curvature="0"
         style="fill:#c8a59c" />
      <path
         id="path3805"
         transform="translate(-12.95,-19.35)"
         d="m 218.43,125.92 a 24.86,24.86 0 0 0 -5.52,-8.11 l -0.19,1.83 a 31.7,31.7 0 0 0 -11.91,-2.84 l 0.36,1.28 a 16.5,16.5 0 0 1 -4.27,-1.73 l -1.29,2.3 a 13.21,13.21 0 0 0 -2.86,-1.73 l -1.67,6 a 6.18,6.18 0 0 1 -1.3,-0.93 c -0.44,-0.3 -1.15,-0.39 -1.43,0.06 a 1.29,1.29 0 0 0 -0.13,0.7 v 2.58 l -2.46,-0.88 a 0.79,0.79 0 0 0 -0.67,0 0.78,0.78 0 0 0 -0.28,0.55 c -1.79,8.94 2,20.57 7.89,27.52 a 5.28,5.28 0 0 0 -0.32,-3.19 c -0.49,-1.28 -2,-2 -1.74,-3.35 a 2.78,2.78 0 0 1 2.75,-2.5 c 1.91,0.22 1.2,0.92 2.56,2.28 0.48,-2.65 -0.67,-7 0.16,-9.55 a 4.65,4.65 0 0 1 7.23,-1.85 c -0.06,-1.7 1.94,-2.79 3.64,-2.73 1.7,0.06 3.63,0.71 5.43,0.93 1.53,0.18 3.1,1.25 4.57,1.23 3.78,-0.06 2.26,-5.74 1.45,-7.87 z"
         inkscape:connector-curvature="0"
         style="fill:#606161" />
      <ellipse
         id="ellipse3807"
         style="opacity:0.23999999;isolation:isolate;fill:#68e1fd"
         ry="3.3499999"
         rx="27.530001"
         cy="340.48001"
         cx="362.07001" />
      <ellipse
         id="ellipse3809"
         style="opacity:0.23999999;isolation:isolate;fill:#68e1fd"
         ry="5.4299998"
         rx="44.650002"
         cy="360.25"
         cx="360.39999" />
      <ellipse
         id="ellipse3811"
         style="isolation:isolate;fill:none;stroke:#ffffff;stroke-width:6.21000004;stroke-miterlimit:10"
         stroke-miterlimit="10"
         ry="8.5100002"
         rx="69.940002"
         cy="318.72"
         cx="361.23001" />
      <path
         id="path3813"
         transform="translate(-12.95,-19.35)"
         d="m 375.74,75.1 c 0,0 -75.15,44.13 -31,181.76 H 406 c 0,0 45.48,-109.52 -30.26,-181.76 z"
         inkscape:connector-curvature="0"
         style="fill:#68e1fd" />
      <path
         id="path3815"
         transform="translate(-12.95,-19.35)"
         d="m 375.74,75.1 c 0,0 -75.15,44.13 -31,181.76 H 406 c 0,0 45.48,-109.52 -30.26,-181.76 z"
         inkscape:connector-curvature="0"
         style="fill:url(#linear-gradient-7)" />
      <circle
         id="circle3817"
         r="20.57"
         cy="145.28999"
         cx="361.51001"
         style="fill:#68e1fd" />
      <path
         id="path3819"
         transform="translate(-12.95,-19.35)"
         d="m 349.88,305.21 7.56,-13.77 a 152.3,152.3 0 0 0 12.28,49 c 12.21,-12.15 15.27,-30.49 17.63,-47.55 q 5.2,12.56 9.29,25.53 a 56.61,56.61 0 0 0 5.15,-35.6 l 4.7,8 a 46.78,46.78 0 0 0 -3.87,-34.61 q -14.56,1.08 -29.18,1.43 -7,0.18 -14.06,0.18 c -3.09,0 -8.78,-1.21 -11.6,0.36 -5.42,3 -3.44,15.93 -3.1,21.24 a 97.42,97.42 0 0 0 1.73,13.07 c 0.41,2.03 4.24,11.32 3.47,12.72 z"
         inkscape:connector-curvature="0"
         style="fill:#68e1fd" />
      <path
         id="path3821"
         transform="translate(-12.95,-19.35)"
         d="m 349.88,305.21 7.56,-13.77 a 152.3,152.3 0 0 0 12.28,49 c 12.21,-12.15 15.27,-30.49 17.63,-47.55 q 5.2,12.56 9.29,25.53 a 56.61,56.61 0 0 0 5.15,-35.6 l 4.7,8 a 46.78,46.78 0 0 0 -3.87,-34.61 q -14.56,1.08 -29.18,1.43 -7,0.18 -14.06,0.18 c -3.09,0 -8.78,-1.21 -11.6,0.36 -5.42,3 -3.44,15.93 -3.1,21.24 a 97.42,97.42 0 0 0 1.73,13.07 c 0.41,2.03 4.24,11.32 3.47,12.72 z"
         inkscape:connector-curvature="0"
         style="fill:url(#linear-gradient-8)" />
      <path
         id="path3823"
         transform="translate(-12.95,-19.35)"
         d="m 360.28,287.92 4.6,-8.4 a 93,93 0 0 0 7.5,29.88 c 7.44,-7.41 9.31,-18.6 10.75,-29 q 3.18,7.67 5.67,15.58 a 34.56,34.56 0 0 0 3.14,-21.72 l 2.86,4.9 A 28.51,28.51 0 0 0 392.44,258 q -8.88,0.66 -17.79,0.88 -4.29,0.1 -8.58,0.1 c -1.88,0 -5.35,-0.74 -7.07,0.22 -3.31,1.85 -2.11,9.72 -1.9,13 a 61,61 0 0 0 1.06,8 c 0.25,1.2 2.58,6.87 2.12,7.72 z"
         inkscape:connector-curvature="0"
         style="fill:url(#linear-gradient-9)" />
      <path
         id="path3825"
         transform="translate(-12.95,-19.35)"
         d="m 360.38,89.15 c 0,0 15.58,5.25 28.25,0 L 376.05,75.47 a 3.09,3.09 0 0 0 -4.67,0.14 z"
         inkscape:connector-curvature="0"
         style="fill:#68e1fd" />
      <path
         id="path3827"
         transform="translate(-12.95,-19.35)"
         d="m 360.38,89.15 c 0,0 15.58,5.25 28.25,0 L 375.9,75.31 a 2.9,2.9 0 0 0 -4.38,0.13 z"
         inkscape:connector-curvature="0"
         style="fill:url(#linear-gradient-10)" />
      <path
         id="path3829"
         style="isolation:isolate;fill:none;stroke:#ffffff;stroke-width:4.17000008;stroke-miterlimit:10"
         stroke-miterlimit="10"
         transform="translate(-12.95,-19.35)"
         d="m 401.11,307 c 10.48,1 17.16,2.63 17.16,4.41 0,3.16 -21,5.72 -47,5.72 -26,0 -47,-2.56 -47,-5.72 0,-2.61 14.44,-4.82 34.15,-5.5"
         inkscape:connector-curvature="0" />
    </g>
  </g>
</svg>
